<svg xmlns="http://www.w3.org/2000/svg" fill="none" viewBox="0 0 55 54"><g filter="url(#filter0_di)"><rect width="50" height="50" x="2.5" y="1" fill="#C4C4C4" rx="4.371"/><path fill="#21313C" d="M2.5 5.37063C2.5 2.9568 4.4568 1 6.87063 1H34.6053V51H6.87063C4.45679 51 2.5 49.0432 2.5 46.6294V5.37063Z"/><g filter="url(#filter1_d)"><path fill="#10AA50" d="M24.5279 23.2877C23.0868 16.9082 20.0793 15.2112 19.3149 14.0107C18.9013 13.3571 18.4815 12.364 18.4815 12.364C18.4377 12.9297 18.3688 13.2879 17.8863 13.7153C16.9214 14.5764 12.8236 17.9264 12.479 25.1733C12.1595 31.9299 17.4289 36.097 18.1307 36.5244C18.6632 36.7884 19.3211 36.5307 19.6344 36.2856C22.172 34.5446 25.6495 29.8746 24.5279 23.2877Z"/><path fill="#B8C4C2" d="M18.6945 32.929C18.5629 34.6008 18.469 35.575 18.1306 36.5304C18.1306 36.5304 18.3499 38.1205 18.5066 39.8113H19.0579C19.1895 38.6234 19.39 37.4417 19.6594 36.279C18.9452 35.927 18.7259 34.3934 18.6945 32.929Z"/><path fill="#12924F" d="M19.6595 36.2792C18.9389 35.9461 18.7322 34.3874 18.7008 32.9292C18.8763 30.5283 18.9264 28.121 18.8512 25.7201C18.8136 24.4567 18.87 14.0359 18.5442 12.5085C18.6758 12.8102 18.9953 13.5079 19.3211 14.0107C20.0855 15.2112 23.0931 16.9082 24.5342 23.2877C25.6495 29.862 22.1971 34.5194 19.6595 36.2792Z"/></g><path fill="#fff" d="M52.5 5.37063C52.5 2.9568 50.5432 1 48.1294 1H34.6053V51H48.1294C50.5432 51 52.5 49.0432 52.5 46.6294V5.37063Z"/><rect width="10.702" height="2.972" x="38.164" y="8.867" fill="#B8C4C2" rx="1.486"/><rect width="10.702" height="2.972" x="38.164" y="16.735" fill="#B8C4C2" rx="1.486"/><rect width="10.702" height="2.972" x="38.164" y="24.601" fill="#B8C4C2" rx="1.486"/><rect width="10.702" height="2.972" x="38.164" y="32.469" fill="#B8C4C2" rx="1.486"/><rect width="10.702" height="2.972" x="38.164" y="40.336" fill="#B8C4C2" rx="1.486"/></g><defs><filter id="filter0_di" width="53.496" height="53.496" x=".752" y=".301" color-interpolation-filters="sRGB" filterUnits="userSpaceOnUse"><feFlood flood-opacity="0" result="BackgroundImageFix"/><feColorMatrix in="SourceAlpha" result="hardAlpha" type="matrix" values="0 0 0 0 0 0 0 0 0 0 0 0 0 0 0 0 0 0 127 0"/><feOffset dy="1.049"/><feGaussianBlur stdDeviation=".874"/><feComposite in2="hardAlpha" operator="out"/><feColorMatrix type="matrix" values="0 0 0 0 0.129412 0 0 0 0 0.192157 0 0 0 0 0.235294 0 0 0 0.22 0"/><feBlend in2="BackgroundImageFix" mode="normal" result="effect1_dropShadow"/><feBlend in="SourceGraphic" in2="effect1_dropShadow" mode="normal" result="shape"/><feColorMatrix in="SourceAlpha" result="hardAlpha" type="matrix" values="0 0 0 0 0 0 0 0 0 0 0 0 0 0 0 0 0 0 127 0"/><feOffset dx=".35" dy="-.699"/><feGaussianBlur stdDeviation=".524"/><feComposite in2="hardAlpha" k2="-1" k3="1" operator="arithmetic"/><feColorMatrix type="matrix" values="0 0 0 0 0 0 0 0 0 0 0 0 0 0 0 0 0 0 0.3 0"/><feBlend in2="shape" mode="normal" result="effect2_innerShadow"/></filter><filter id="filter1_d" width="15.781" height="30.944" x="10.717" y="11.315" color-interpolation-filters="sRGB" filterUnits="userSpaceOnUse"><feFlood flood-opacity="0" result="BackgroundImageFix"/><feColorMatrix in="SourceAlpha" result="hardAlpha" type="matrix" values="0 0 0 0 0 0 0 0 0 0 0 0 0 0 0 0 0 0 127 0"/><feOffset dy=".699"/><feGaussianBlur stdDeviation=".874"/><feComposite in2="hardAlpha" operator="out"/><feColorMatrix type="matrix" values="0 0 0 0 0 0 0 0 0 0 0 0 0 0 0 0 0 0 0.25 0"/><feBlend in2="BackgroundImageFix" mode="normal" result="effect1_dropShadow"/><feBlend in="SourceGraphic" in2="effect1_dropShadow" mode="normal" result="shape"/></filter></defs></svg>