<svg width="41" height="32" viewBox="0 0 41 32" fill="none" xmlns="http://www.w3.org/2000/svg">
<rect x="4.75049" y="0.000488281" width="32" height="32" rx="1.96677" fill="#C4C4C4"/>
<path d="M4.75049 1.96726C4.75049 0.881041 5.63104 0.000488281 6.71726 0.000488281H25.2979V32.0005H6.71726C5.63104 32.0005 4.75049 31.1199 4.75049 30.0337V1.96726Z" fill="#21313C"/>
<g filter="url(#filter0_d)">
<path d="M18.7573 14.1528C17.835 10.0699 15.9102 8.98383 15.421 8.21553C15.1563 7.79718 14.8876 7.16162 14.8876 7.16162C14.8596 7.52365 14.8155 7.75293 14.5067 8.02647C13.8891 8.57756 11.2666 10.7216 11.046 15.3596C10.8415 19.6838 14.214 22.3507 14.6631 22.6243C15.0039 22.7932 15.425 22.6283 15.6255 22.4714C17.2495 21.3572 19.4751 18.3684 18.7573 14.1528Z" fill="#10AA50"/>
<path d="M15.023 20.3232C14.9388 21.3932 14.8787 22.0167 14.6621 22.6282C14.6621 22.6282 14.8025 23.6459 14.9027 24.7279H15.2556C15.3398 23.9677 15.4681 23.2114 15.6406 22.4673C15.1834 22.242 15.0431 21.2605 15.023 20.3232Z" fill="#B8C4C2"/>
<path d="M15.6415 22.4657C15.1804 22.2525 15.048 21.2549 15.028 20.3217C15.1403 18.7851 15.1723 17.2444 15.1242 15.7078C15.1002 14.8993 15.1363 8.22992 14.9277 7.25244C15.0119 7.44552 15.2165 7.89203 15.425 8.21383C15.9142 8.98213 17.839 10.0682 18.7613 14.1511C19.4751 18.3587 17.2656 21.3394 15.6415 22.4657Z" fill="#12924F"/>
</g>
<path d="M36.7495 1.96677C36.7495 0.880553 35.869 0 34.7827 0H25.2969V32H34.7827C35.869 32 36.7495 31.1195 36.7495 30.0332V1.96677Z" fill="white"/>
<path d="M27.6558 5.87488C27.6558 5.34963 28.0816 4.92383 28.6068 4.92383H33.5539C34.0791 4.92383 34.5049 5.34963 34.5049 5.87488C34.5049 6.40013 34.0791 6.82593 33.5539 6.82593H28.6068C28.0816 6.82593 27.6558 6.40013 27.6558 5.87488Z" fill="#B8C4C2"/>
<path d="M27.6558 10.9098C27.6558 10.3845 28.0816 9.95873 28.6068 9.95873H33.5538C34.0791 9.95873 34.5049 10.3845 34.5049 10.9098C34.5049 11.435 34.0791 11.8608 33.5538 11.8608H28.6068C28.0816 11.8608 27.6558 11.435 27.6558 10.9098Z" fill="#B8C4C2"/>
<path d="M27.6558 15.9448C27.6558 15.4195 28.0816 14.9937 28.6068 14.9937H33.5538C34.0791 14.9937 34.5049 15.4195 34.5049 15.9448C34.5049 16.47 34.0791 16.8958 33.5538 16.8958H28.6068C28.0816 16.8958 27.6558 16.47 27.6558 15.9448Z" fill="#B8C4C2"/>
<path d="M27.6558 20.9797C27.6558 20.4545 28.0816 20.0287 28.6068 20.0287H33.5538C34.0791 20.0287 34.5049 20.4545 34.5049 20.9797C34.5049 21.505 34.0791 21.9308 33.5538 21.9308H28.6068C28.0816 21.9308 27.6558 21.505 27.6558 20.9797Z" fill="#B8C4C2"/>
<path d="M27.6558 26.0147C27.6558 25.4895 28.0816 25.0637 28.6068 25.0637H33.5538C34.0791 25.0637 34.5049 25.4895 34.5049 26.0147C34.5049 26.54 34.0791 26.9658 33.5538 26.9658H28.6068C28.0816 26.9658 27.6558 26.54 27.6558 26.0147Z" fill="#B8C4C2"/>
<defs>
<filter id="filter0_d" x="10.2504" y="6.6896" width="9.43555" height="19.1397" filterUnits="userSpaceOnUse" color-interpolation-filters="sRGB">
<feFlood flood-opacity="0" result="BackgroundImageFix"/>
<feColorMatrix in="SourceAlpha" type="matrix" values="0 0 0 0 0 0 0 0 0 0 0 0 0 0 0 0 0 0 127 0" result="hardAlpha"/>
<feOffset dy="0.314683"/>
<feGaussianBlur stdDeviation="0.393354"/>
<feComposite in2="hardAlpha" operator="out"/>
<feColorMatrix type="matrix" values="0 0 0 0 0 0 0 0 0 0 0 0 0 0 0 0 0 0 0.25 0"/>
<feBlend mode="normal" in2="BackgroundImageFix" result="effect1_dropShadow"/>
<feBlend mode="normal" in="SourceGraphic" in2="effect1_dropShadow" result="shape"/>
</filter>
</defs>
</svg>
